<?xml version="1.0" encoding="utf-8"?>
<!-- Generator: Adobe Illustrator 19.2.0, SVG Export Plug-In . SVG Version: 6.00 Build 0)  -->
<svg version="1.1" id="Layer_4" xmlns="http://www.w3.org/2000/svg" xmlns:xlink="http://www.w3.org/1999/xlink" x="0px" y="0px"
	 viewBox="0 0 460.1 272.4" style="enable-background:new 0 0 460.1 272.4;" xml:space="preserve">
<style type="text/css">
	.st0{fill:#FFFFFF;}
	.st1{fill:url(#SVGID_1_);}
	.st2{fill:url(#SVGID_2_);}
	.st3{fill:url(#SVGID_3_);}
	.st4{fill:url(#SVGID_4_);}
	.st5{fill:#006DB6;}
	.st6{fill:url(#SVGID_5_);}
</style>
<path class="st0" d="M166.7,72.7v65.4c0,13.4-3.7,27-11.4,39.2s-18.5,21.3-30.6,27.1l-26,12.3l-26-12.3
	c-12.2-5.7-22.9-14.9-30.6-27.1c-7.7-12.2-11.4-25.8-11.4-39.2V72.7c0,0,20.9-17,67.8-17C145.5,55.8,166.7,72.7,166.7,72.7z"/>
<linearGradient id="SVGID_1_" gradientUnits="userSpaceOnUse" x1="98.7" y1="217.3" x2="98.7" y2="54.1" gradientTransform="matrix(1 0 0 -1 0 272)">
	<stop  offset="0" style="stop-color:#45B2E5"/>
	<stop  offset="0.3203" style="stop-color:#2F92CE"/>
	<stop  offset="0.5769" style="stop-color:#1B75BA"/>
	<stop  offset="0.6512" style="stop-color:#1B70B4"/>
	<stop  offset="0.7525" style="stop-color:#1C63A2"/>
	<stop  offset="0.8692" style="stop-color:#1E4D86"/>
	<stop  offset="0.9967" style="stop-color:#202E5E"/>
	<stop  offset="1" style="stop-color:#202D5D"/>
</linearGradient>
<path class="st1" d="M98.8,217.9l-26.5-12.5c-12.8-6-23.5-15.5-31.1-27.5c-7.6-11.9-11.6-25.7-11.6-39.8V72.2l0.4-0.3
	c0.9-0.7,21.7-17.2,68.5-17.2s68,16.5,68.9,17.2l0.4,0.3v65.9c0,14.1-4,27.9-11.6,39.8c-7.6,11.9-18.3,21.4-31.1,27.5L98.8,217.9z
	 M31.9,73.3v64.8c0,13.7,3.9,27.1,11.2,38.6c7.3,11.6,17.7,20.8,30.1,26.6l25.5,12l25.5-12c12.4-5.9,22.8-15.1,30.1-26.6
	c7.3-11.6,11.2-24.9,11.2-38.6V73.3c-3.2-2.3-24.7-16.4-67-16.4S35.1,71,31.9,73.3z"/>
<linearGradient id="SVGID_2_" gradientUnits="userSpaceOnUse" x1="98.7" y1="207.882" x2="98.7" y2="64.4318" gradientTransform="matrix(1 0 0 -1 0 272)">
	<stop  offset="0" style="stop-color:#45B2E5"/>
	<stop  offset="0.3252" style="stop-color:#3092CE"/>
	<stop  offset="0.5769" style="stop-color:#1D76BB"/>
	<stop  offset="0.6507" style="stop-color:#1D71B5"/>
	<stop  offset="0.7513" style="stop-color:#1E64A3"/>
	<stop  offset="0.8672" style="stop-color:#1F4D87"/>
	<stop  offset="0.9938" style="stop-color:#202F5F"/>
	<stop  offset="1" style="stop-color:#202D5D"/>
</linearGradient>
<path class="st2" d="M76.1,197.2c-11.2-5.3-20.7-13.6-27.3-24.1s-10.2-22.6-10.2-35V77c7-4.1,26.3-13.3,59.9-13.3
	s53.2,9.2,60.3,13.3v61.1c0,12.4-3.5,24.5-10.2,35c-6.6,10.5-16.1,18.8-27.3,24.1l-22.6,10.7L76.1,197.2z"/>
<linearGradient id="SVGID_3_" gradientUnits="userSpaceOnUse" x1="98.7" y1="207.882" x2="98.7" y2="64.4318" gradientTransform="matrix(1 0 0 -1 0 272)">
	<stop  offset="0" style="stop-color:#45B2E5"/>
	<stop  offset="0.3252" style="stop-color:#3092CE"/>
	<stop  offset="0.5769" style="stop-color:#1D76BB"/>
	<stop  offset="0.6507" style="stop-color:#1D71B5"/>
	<stop  offset="0.7513" style="stop-color:#1E64A3"/>
	<stop  offset="0.8672" style="stop-color:#1F4D87"/>
	<stop  offset="0.9938" style="stop-color:#202F5F"/>
	<stop  offset="1" style="stop-color:#202D5D"/>
</linearGradient>
<path class="st3" d="M76.1,197.2c-11.2-5.3-20.7-13.6-27.3-24.1s-10.2-22.6-10.2-35V77c7-4.1,26.3-13.3,59.9-13.3
	s53.2,9.2,60.3,13.3v61.1c0,12.4-3.5,24.5-10.2,35c-6.6,10.5-16.1,18.8-27.3,24.1l-22.6,10.7L76.1,197.2z"/>
<linearGradient id="SVGID_4_" gradientUnits="userSpaceOnUse" x1="98.7" y1="207.882" x2="98.7" y2="64.4318" gradientTransform="matrix(1 0 0 -1 0 272)">
	<stop  offset="0" style="stop-color:#45B2E5"/>
	<stop  offset="0.3252" style="stop-color:#3092CE"/>
	<stop  offset="0.5769" style="stop-color:#1D76BB"/>
	<stop  offset="0.6507" style="stop-color:#1D71B5"/>
	<stop  offset="0.7513" style="stop-color:#1E64A3"/>
	<stop  offset="0.8672" style="stop-color:#1F4D87"/>
	<stop  offset="0.9938" style="stop-color:#202F5F"/>
	<stop  offset="1" style="stop-color:#202D5D"/>
</linearGradient>
<path class="st4" d="M76.1,197.2c-11.2-5.3-20.7-13.6-27.3-24.1s-10.2-22.6-10.2-35V77c7-4.1,26.3-13.3,59.9-13.3
	s53.2,9.2,60.3,13.3v61.1c0,12.4-3.5,24.5-10.2,35c-6.6,10.5-16.1,18.8-27.3,24.1l-22.6,10.7L76.1,197.2z"/>
<path class="st5" d="M145.8,107.7l-12.6-12.6c-1.8-1.8-4.9-1.7-6.9,0.4l-36.6,36.6l-18.3-18.3c-2-2-5.1-2.2-6.9-0.4L51.7,126
	c-1.8,1.8-1.7,4.9,0.4,7l21.6,21.6l0,0l12.6,12.6c0.8,0.8,1.8,1.1,2.9,1.2c0.1,0,0.3,0.1,0.4,0.1s0.3,0,0.4-0.1
	c1.1-0.1,2.1-0.4,2.9-1.2l0.4-0.4l0,0l52.1-52.1C147.4,112.6,147.6,109.5,145.8,107.7z"/>
<path class="st0" d="M145.8,109.8l-12.6-12.6c-1.8-1.8-4.9-1.7-6.9,0.4l-36.6,36.6l-18.3-18.3c-2-2-5.1-2.2-6.9-0.4l-12.6,12.6
	c-1.8,1.8-1.7,4.9,0.4,7l21.6,21.6l0,0l12.6,12.6c0.8,0.8,1.8,1.1,2.9,1.2c0.1,0,0.3,0.1,0.4,0.1s0.3,0,0.4-0.1
	c1.1-0.1,2.1-0.4,2.9-1.2l0.4-0.4l0,0l52.1-52.1C147.4,114.7,147.6,111.6,145.8,109.8z"/>
<linearGradient id="SVGID_5_" gradientUnits="userSpaceOnUse" x1="88" y1="101.5" x2="88" y2="121.8469" gradientTransform="matrix(1 0 0 -1 0 272)">
	<stop  offset="0" style="stop-color:#FFFFFF"/>
	<stop  offset="0.9725" style="stop-color:#D0D0D1"/>
</linearGradient>
<path class="st6" d="M98.8,153.9c-11.1,0-21.7-1.3-31.5-3.8l6.5,6.5l0,0l12.6,12.6c0.8,0.8,1.8,1.1,2.9,1.2c0.1,0,0.3,0.1,0.4,0.1
	s0.3,0,0.4-0.1c1.1-0.1,2.1-0.4,2.9-1.2l0.4-0.4l0,0l15.3-15.3C105.4,153.8,102.1,153.9,98.8,153.9z"/>
<path class="st0" d="M219.6,156.5c-2.8-2.9-5.9-4.8-9-4.8c-8.7,0-14,6.8-14,14.3c0,7.4,5.3,14.3,14,14.3c3.7,0,7-1.6,9.2-4.5
	l7.9,8.5c-4.9,4.9-13,6.6-17.2,6.6c-14.4,0-25.9-10-25.9-25s11.5-25,25.9-25c6.1,0,12.7,2.2,17.3,7.2L219.6,156.5z M256.2,141.1
	c14.4,0,25.9,10,25.9,25s-11.5,25-25.9,25s-25.9-10-25.9-25S241.8,141.1,256.2,141.1z M256.2,180.3c8.7,0,14-6.8,14-14.3
	c0-7.4-5.3-14.3-14-14.3c-8.7,0-14,6.8-14,14.3C242.2,173.5,247.4,180.3,256.2,180.3z M319.8,183.3h-0.3c-3.4,5.4-8.9,7.7-15.3,7.7
	c-8.8,0-17.4-4.9-17.4-14.3c0-15.5,18.1-16.6,30-16.6h3v-1.3c0-5.9-4.6-8.9-10.9-8.9c-5,0-9.5,2-12.7,5l-6.3-6.3
	c5.3-5.4,12.7-7.6,20.2-7.6c20.3,0,20.3,14.7,20.3,21.4v27.4h-10.7L319.8,183.3L319.8,183.3z M319.1,168.5h-2.5
	c-6.5,0-17.9,0.5-17.9,7.3c0,4.4,4.5,6.3,8.3,6.3c8.1,0,12-4.3,12-10.9v-2.7H319.1z M371.9,156.5c-2.8-2.9-5.9-4.8-9-4.8
	c-8.7,0-14,6.8-14,14.3c0,7.4,5.3,14.3,14,14.3c3.7,0,7-1.6,9.2-4.5l7.9,8.5c-4.9,4.9-13,6.6-17.2,6.6c-14.4,0-25.9-10-25.9-25
	s11.5-25,25.9-25c6.1,0,12.7,2.2,17.3,7.2L371.9,156.5z M398.1,148.9h0.2c1.9-4,6.6-7.8,14-7.8c12.8,0,17.4,9,17.4,18.8V190h-11.9
	v-24.1c0-5.3-0.4-14-8.7-14c-7.8,0-10.9,5.8-10.9,12.1v26h-11.9v-75h11.9v33.9H398.1z M187.9,96.5c2.5-2.6,6.2-3.8,9.8-3.8
	c7.3,0,10.4,3.5,10.4,10.5v10.6c0,1.4,0.2,3,0.4,4.3h-4c-0.3-1.1-0.3-2.6-0.3-3.7h-0.1c-1.6,2.5-4.4,4.3-8.1,4.3
	c-5,0-9.2-2.5-9.2-7.4c0-8.2,9.5-8.7,15.6-8.7h1.6v-0.7c0-3.6-2.3-5.5-6.1-5.5c-2.6,0-5.4,0.9-7.4,2.7L187.9,96.5z M199.9,106.2
	c-5.2,0-8.6,1.4-8.6,4.8c0,3.1,2.3,4.3,5.5,4.3c4.8,0,7.2-3.4,7.3-7.5v-1.6C204.1,106.2,199.9,106.2,199.9,106.2z M212.6,78.1h4.1
	v40h-4.1V78.1z M238.8,99.5c-1.7-2.1-3.8-3-6.2-3c-5.6,0-8.4,4.1-8.4,9.2s3.3,9.2,8.4,9.2c2.7,0,4.8-1,6.3-3.1l3.1,2.9
	c-2.4,2.8-5.8,4-9.4,4c-7.7,0-12.8-5.4-12.8-13c0-7.5,5.2-13,12.8-13c3.7,0,7,1.2,9.5,3.9L238.8,99.5z M244.9,78.1h4.1v18.7h0.1
	c1.1-2,4.1-4.1,7.9-4.1c6.5,0,9.4,4.1,9.4,10.1v15.3h-4.1v-14.9c0-4.1-1.8-6.7-5.7-6.7c-5.3,0-7.7,3.9-7.7,9.5v12.1h-4.1v-40H244.9z
	 M292.9,113.6c-2.9,3.8-6.4,5.1-11,5.1c-7.8,0-12.5-5.8-12.5-13c0-7.7,5.4-13,12.7-13c7,0,11.7,4.8,11.7,13v1.3h-20
	c0.3,4.3,3.6,7.9,8.1,7.9c3.5,0,5.9-1.3,7.9-3.8L292.9,113.6z M289.3,103.5c-0.2-4.2-2.9-7-7.5-7s-7.6,2.8-8.1,7H289.3z M297,99.2
	c0-2.3-0.2-4.2-0.2-5.9h3.9c0,1.3,0.1,2.7,0.1,4.1h0.1c1.1-2.4,4.2-4.7,8.3-4.7c5.3,0,7,3,7.8,4.7c1.8-2.9,4.1-4.7,7.8-4.7
	c7.1,0,9.4,4,9.4,10.4v15h-4.1v-14.8c0-3.4-1.2-6.8-6-6.8c-3.5,0-6.4,2.9-6.4,7.3v14.3h-4.1v-14c0-5.5-1.4-7.6-4.8-7.6
	c-5.3,0-7.7,3.9-7.7,9.5v12.1H297V99.2z M347.7,123.7c-1.6,4.2-3.3,7-8.3,7c-1.2,0-2.6-0.1-3.7-0.6l0.5-3.6c0.8,0.3,1.7,0.4,2.9,0.4
	c2.7,0,3.7-1.6,4.6-4.1l1.7-4.7l-10.3-24.9h4.8l7.7,19.4h0.1l7.4-19.4h4.5L347.7,123.7z"/>
</svg>
