<svg xmlns="http://www.w3.org/2000/svg" width="26" height="25" viewBox="0 0 26 25">
    <g fill="none" fill-rule="evenodd">
        <path d="M-1-1.729h28v28.475H-1z"/>
        <path fill="#1976D2" fill-rule="nonzero" d="M23.5 2.424h-2.333V.05h-2.334v5.932H16.5v-3.56h-7V.052H7.167v5.932H4.833v-3.56H2.5C1.217 2.424.167 3.493.167 4.798v17.796c0 1.305 1.05 2.373 2.333 2.373h21c1.283 0 2.333-1.068 2.333-2.373V4.797c0-1.305-1.05-2.373-2.333-2.373zM8.333 21.407H3.667V16.66h4.666v4.746zm0-7.119H3.667V9.542h4.666v4.746zm7 7.119h-4.666V16.66h4.666v4.746zm0-7.119h-4.666V9.542h4.666v4.746zm7 0h-4.666V9.542h4.666v4.746z"/>
    </g>
</svg>
