<svg xmlns="http://www.w3.org/2000/svg" width="26" height="17" viewBox="0 0 26 17">
    <g fill="none" fill-rule="evenodd">
        <path d="M-1-5.712h28v28.475H-1z"/>
        <path fill="#1976D2" fill-rule="nonzero" d="M17.667 7.339c1.936 0 3.488-1.59 3.488-3.56 0-1.969-1.552-3.559-3.488-3.559-1.937 0-3.5 1.59-3.5 3.56s1.563 3.559 3.5 3.559zm-9.334 0c1.937 0 3.489-1.59 3.489-3.56C11.822 1.81 10.27.22 8.333.22c-1.936 0-3.5 1.59-3.5 3.56s1.564 3.559 3.5 3.559zm0 2.373C5.615 9.712.167 11.1.167 13.864v2.967H16.5v-2.967c0-2.764-5.448-4.152-8.167-4.152zm9.334 0c-.339 0-.724.024-1.132.06 1.353.996 2.298 2.336 2.298 4.092v2.967h7v-2.967c0-2.764-5.448-4.152-8.166-4.152z"/>
    </g>
</svg>
