<svg xmlns="http://www.w3.org/2000/svg" width="64" height="64" viewBox="0 0 64 64">
    <g fill="none" fill-rule="evenodd">
        <path d="M0 0h64v64H0z"/>
        <path fill="#039BE5" fill-rule="nonzero" d="M50.667 10.667H48v8H16v-8h-2.667C10.4 10.667 8 13.067 8 16v40c0 2.933 2.4 5.333 5.333 5.333h37.334C53.6 61.333 56 58.933 56 56V16c0-2.933-2.4-5.333-5.333-5.333zM32 26.667c3.733 0 6.667 2.933 6.667 6.666C38.667 37.067 35.733 40 32 40c-3.733 0-6.667-2.933-6.667-6.667 0-3.733 2.934-6.666 6.667-6.666zm-9.867 26.666c0-6.133 3.734-10.133 10.134-10.133C38.4 43.2 42.4 46.933 42.4 53.333H22.133zM42.667 8v8H21.333V8h5.334c0-2.933 2.4-5.333 5.333-5.333 2.933 0 5.333 2.4 5.333 5.333h5.334z"/>
    </g>
</svg>
