<?xml version="1.0" encoding="utf-8"?>
<!-- Generator: Adobe Illustrator 19.2.0, SVG Export Plug-In . SVG Version: 6.00 Build 0)  -->
<svg version="1.1" id="Layer_2" xmlns="http://www.w3.org/2000/svg" xmlns:xlink="http://www.w3.org/1999/xlink" x="0px" y="0px"
	 viewBox="0 0 24 24" style="enable-background:new 0 0 24 24;" xml:space="preserve">
<style type="text/css">
	.st0{fill:none;}
</style>
<path d="M19,4h-1v3H6V4H5C3.9,4,3,4.9,3,6v15c0,1.1,0.9,2,2,2h14c1.1,0,2-0.9,2-2V6C21,4.9,20.1,4,19,4z M12,10
	c1.4,0,2.5,1.1,2.5,2.5c0,1.4-1.1,2.5-2.5,2.5c-1.4,0-2.5-1.1-2.5-2.5C9.5,11.1,10.6,10,12,10z M8.3,20c0-2.3,1.4-3.8,3.8-3.8
	c2.3,0,3.8,1.4,3.8,3.8H8.3z M16,3v3H8V3h2c0-1.1,0.9-2,2-2s2,0.9,2,2H16z"/>
<rect class="st0" width="24" height="24"/>
</svg>
