<?xml version="1.0" encoding="utf-8"?>
<!-- Generator: Adobe Illustrator 19.2.0, SVG Export Plug-In . SVG Version: 6.00 Build 0)  -->
<svg version="1.1" id="Layer_1" xmlns="http://www.w3.org/2000/svg" xmlns:xlink="http://www.w3.org/1999/xlink" x="0px" y="0px"
	 viewBox="0 0 24 24" style="enable-background:new 0 0 24 24;" xml:space="preserve">
<style type="text/css">
	.st0{fill:none;}
</style>
<rect class="st0" width="24" height="24"/>
<path d="M12.7,7.3l-1.4,1.4l2.3,2.3H2v2h11.6l-2.3,2.3l1.4,1.4l4.7-4.7L12.7,7.3z M12,2C7.5,2,3.7,4.9,2.5,9h2.1C5.8,6.1,8.6,4,12,4
	c4.4,0,8,3.6,8,8s-3.6,8-8,8c-3.4,0-6.2-2.1-7.4-5H2.5c1.3,4.1,5.1,7,9.5,7c5.5,0,10-4.5,10-10S17.5,2,12,2z"/>
</svg>
