<svg xmlns="http://www.w3.org/2000/svg" width="24" height="24" viewBox="0 0 24 24">
    <g fill="none" fill-rule="evenodd">
        <path d="M-2-2h28v28H-2z"/>
        <path fill="#ECEFF1" fill-rule="nonzero" d="M20.668 13.143c.047-.373.082-.746.082-1.143s-.035-.77-.082-1.143l2.462-1.925a.589.589 0 0 0 .14-.747l-2.333-4.037a.586.586 0 0 0-.712-.256L17.32 5.058a8.524 8.524 0 0 0-1.972-1.143L14.905.823a.569.569 0 0 0-.572-.49H9.667a.569.569 0 0 0-.572.49l-.443 3.092A8.963 8.963 0 0 0 6.68 5.058L3.775 3.892a.57.57 0 0 0-.712.256L.73 8.185a.575.575 0 0 0 .14.747l2.462 1.925A9.252 9.252 0 0 0 3.25 12c0 .385.035.77.082 1.143L.87 15.068a.589.589 0 0 0-.14.747l2.333 4.037c.14.256.455.35.712.256l2.905-1.166c.607.466 1.26.851 1.972 1.143l.443 3.092c.035.28.28.49.572.49h4.666c.292 0 .537-.21.572-.49l.443-3.092a8.963 8.963 0 0 0 1.972-1.143l2.905 1.166a.57.57 0 0 0 .712-.256l2.333-4.037a.589.589 0 0 0-.14-.747l-2.462-1.925zM12 16.083A4.088 4.088 0 0 1 7.917 12 4.088 4.088 0 0 1 12 7.917 4.088 4.088 0 0 1 16.083 12 4.088 4.088 0 0 1 12 16.083z"/>
    </g>
</svg>
